<svg width="499.2" height="101.19745140154652" viewBox="0 0 369.6417910447761 74.93350798324187" class="css-1j8o68f"><defs id="SvgjsDefs3650"><linearGradient id="SvgjsLinearGradient3657"><stop id="SvgjsStop3658" stop-color="#006838" offset="0"></stop><stop id="SvgjsStop3659" stop-color="#96cf24" offset="1"></stop></linearGradient><linearGradient id="SvgjsLinearGradient3660"><stop id="SvgjsStop3661" stop-color="#006838" offset="0"></stop><stop id="SvgjsStop3662" stop-color="#96cf24" offset="1"></stop></linearGradient><linearGradient id="SvgjsLinearGradient3663"><stop id="SvgjsStop3664" stop-color="#006838" offset="0"></stop><stop id="SvgjsStop3665" stop-color="#96cf24" offset="1"></stop></linearGradient></defs><g id="SvgjsG3652" featurekey="nameFeature-0" transform="matrix(1.212537808916677,0,0,1.212537808916677,100.06052655852605,-11.46227494401396)" fill="url(#SvgjsLinearGradient3660)"><path d="M10.41 18.75 q0.33203125 0 0.625 0.15625 q0 -0.078125 0.078125 -0.078125 q0 0.13671875 0.390625 0.234375 l0 -0.078125 l1.1719 0.3125 q0.2734375 0.3125 0.546875 0.3125 q0.3125 0.87890625 0.3125 1.09375 l0 0.078125 q0 0.99609375 -1.5625 3.90625 l-0.15625 -0.078125 q-1.42578125 2.578125 -2.734375 4.296875 q-2.32421875 2.578125 -3.28125 2.578125 q-0.078125 0 -0.9375 -0.234375 l-0.23438 0 q0 -0.1953125 -0.703125 -0.625 l-0.46875 -0.70313 l0 -0.15625 l0.3125 0.078125 q1.23046875 0 2.34375 -1.40625 q0.859375 -0.5859375 1.953125 -1.953125 l0.078125 0 l-0.078125 -0.15625 q1.1328125 -1.40625 2.1875 -3.671875 l0.15625 0 l-0.078125 0.15625 l0.078125 0 l0.23438 -0.39063 l-0.078125 0 q0 0.15625 -0.15625 0.15625 l0 -0.15625 q0.703125 -1.26953125 0.703125 -1.484375 q-1.15234375 0.1953125 -3.28125 2.421875 q-1.40625 1.2109375 -1.40625 1.71875 q-2.8515625 3.41796875 -4.53125 7.5 q-0.546875 1.6796875 -0.546875 2.890625 q0.234375 1.875 1.328125 1.875 q0 0.078125 0.078125 0.078125 l0.625 0 l0.15625 -0.078125 l0 0.078125 q1.2109375 0 4.21875 -2.96875 q0.9765625 -0.9375 1.40625 -0.9375 l0.078125 0 q0 0.15625 0.390625 0.390625 l0.078125 0.15625 q-0.15625 0.01953125 -0.15625 0.15625 q0.01953125 0.15625 0.15625 0.15625 q0 -0.078125 0.078125 -0.078125 l0.078125 0.54688 l0 0.15625 l-0.15625 0.23438 l0.078125 0 q-0.078125 0.09765625 -0.078125 0.46875 l0.078125 0 q-0.15625 0.3125 -0.234375 0.3125 l0.078125 0.15625 q-0.99609375 1.85546875 -1.40625 2.265625 q-1.73828125 1.484375 -2.8125 1.484375 q0 0.078125 -0.546875 0.078125 l-0.78125 0 q-0.078125 0 -0.078125 -0.078125 q-0.078125 0 -0.078125 0.078125 q-1.328125 -0.17578125 -3.046875 -1.328125 q-0.9375 -0.76171875 -1.71875 -1.875 q-0.859375 -1.85546875 -0.859375 -2.5 l0 -0.9375 q0.13671875 -1.89453125 1.5625 -4.296875 q0.5859375 -1.34765625 3.203125 -4.765625 q2.79296875 -3.125 4.140625 -3.984375 q0.9375 -0.60546875 0.9375 -0.78125 l0.15625 0.078125 q0 -0.3125 1.328125 -0.859375 l0.78125 0 z M28.1175625 18.359 l0.15625 0.078125 l0.078125 0 l0.15625 -0.078125 q0 0.234375 0.390625 0.234375 l-0.078125 0.15625 q0.078125 0.15625 0.078125 0.234375 q-0.078125 0 -0.078125 0.078125 q0.1171875 0 0.234375 0.3125 l-0.23438 1.1719 l0.15625 -0.078125 l0 0.078125 q-0.5078125 0.64453125 -0.703125 1.40625 q-0.09765625 0.15625 -0.234375 0.15625 l0 0.39063 q-0.95703125 1.50390625 -1.09375 2.109375 q-2.265625 3.4375 -2.265625 3.671875 q-0.76171875 1.46484375 -3.125 5.3125 q0 0.37109375 -1.09375 2.265625 l-1.7188 2.7344 q-0.48828125 0.41015625 -0.703125 1.09375 q-0.234375 0 -0.78125 0.234375 q-0.17578125 0 -0.3125 0.078125 q0 -0.15625 -0.15625 -0.15625 l-0.39063 0 q0 -0.29296875 -0.3125 -0.390625 q0 -0.1953125 -0.3125 -0.234375 l0 -0.078125 q0 -0.5078125 -0.390625 -1.484375 l-0.15625 -0.78125 l0.078125 0 l-0.078125 -0.15625 q0.078125 -1.6796875 0.078125 -2.5 l0.078125 0 q0 -0.078125 -0.078125 -0.078125 q0.078125 -1.25 0.3125 -2.421875 l-0.078125 -0.15625 q0.15625 -0.5859375 0.15625 -0.703125 q-0.078125 -0.15625 -0.078125 -0.234375 q0.17578125 0 0.546875 -2.421875 q1.5625 -5.4296875 1.5625 -5.46875 q-0.15625 0 -0.15625 -0.15625 q0.078125 -0.234375 0.15625 -0.234375 t0.078125 0.078125 q0.0390625 0 0.3125 -0.078125 q0.3515625 0 0.703125 0.234375 q0.078125 0 0.078125 -0.078125 q0.1171875 0 1.09375 0.703125 q0.078125 0.01953125 0.546875 1.09375 q0 0.76171875 -1.171875 4.375 l0 0.23438 q-0.64453125 1.796875 -0.859375 3.28125 l0.46875 0 q0 -0.17578125 0.46875 -0.703125 q4.921875 -8.22265625 8.59375 -12.734375 l-0.15625 0 l0 -0.078125 z M40.57015625 18.75 q0.33203125 0 0.625 0.15625 q0 -0.078125 0.078125 -0.078125 q0 0.13671875 0.390625 0.234375 l0 -0.078125 l1.1719 0.3125 q0.2734375 0.3125 0.546875 0.3125 q0.3125 0.87890625 0.3125 1.09375 l0 0.078125 q0 0.99609375 -1.5625 3.90625 l-0.15625 -0.078125 q-1.42578125 2.578125 -2.734375 4.296875 q-2.32421875 2.578125 -3.28125 2.578125 q-0.078125 0 -0.9375 -0.234375 l-0.23438 0 q0 -0.1953125 -0.703125 -0.625 l-0.46875 -0.70313 l0 -0.15625 l0.3125 0.078125 q1.23046875 0 2.34375 -1.40625 q0.859375 -0.5859375 1.953125 -1.953125 l0.078125 0 l-0.078125 -0.15625 q1.1328125 -1.40625 2.1875 -3.671875 l0.15625 0 l-0.078125 0.15625 l0.078125 0 l0.23438 -0.39063 l-0.078125 0 q0 0.15625 -0.15625 0.15625 l0 -0.15625 q0.703125 -1.26953125 0.703125 -1.484375 q-1.15234375 0.1953125 -3.28125 2.421875 q-1.40625 1.2109375 -1.40625 1.71875 q-2.8515625 3.41796875 -4.53125 7.5 q-0.546875 1.6796875 -0.546875 2.890625 q0.234375 1.875 1.328125 1.875 q0 0.078125 0.078125 0.078125 l0.625 0 l0.15625 -0.078125 l0 0.078125 q1.2109375 0 4.21875 -2.96875 q0.9765625 -0.9375 1.40625 -0.9375 l0.078125 0 q0 0.15625 0.390625 0.390625 l0.078125 0.15625 q-0.15625 0.01953125 -0.15625 0.15625 q0.01953125 0.15625 0.15625 0.15625 q0 -0.078125 0.078125 -0.078125 l0.078125 0.54688 l0 0.15625 l-0.15625 0.23438 l0.078125 0 q-0.078125 0.09765625 -0.078125 0.46875 l0.078125 0 q-0.15625 0.3125 -0.234375 0.3125 l0.078125 0.15625 q-0.99609375 1.85546875 -1.40625 2.265625 q-1.73828125 1.484375 -2.8125 1.484375 q0 0.078125 -0.546875 0.078125 l-0.78125 0 q-0.078125 0 -0.078125 -0.078125 q-0.078125 0 -0.078125 0.078125 q-1.328125 -0.17578125 -3.046875 -1.328125 q-0.9375 -0.76171875 -1.71875 -1.875 q-0.859375 -1.85546875 -0.859375 -2.5 l0 -0.9375 q0.13671875 -1.89453125 1.5625 -4.296875 q0.5859375 -1.34765625 3.203125 -4.765625 q2.79296875 -3.125 4.140625 -3.984375 q0.9375 -0.60546875 0.9375 -0.78125 l0.15625 0.078125 q0 -0.3125 1.328125 -0.859375 l0.78125 0 z M59.93771875 22.129 l0.3125 0 q0.15625 0.17578125 1.25 0.625 q0 0.13671875 0.625 0.625 q0.625 0.5078125 0.625 0.859375 l0 0.39063 q0 1.1328125 -3.046875 5.390625 q-2.44140625 3.30078125 -5.546875 8.515625 q-0.703125 1.50390625 -0.703125 2.5 q0.01953125 0.1953125 0.390625 0.3125 q0.09765625 0 1.09375 -0.3125 q0 0.078125 0.078125 0.078125 l0.078125 -0.15625 l0.15625 0.078125 l2.2656 -1.0156 l0 -0.078125 l0.078125 0 q0.078125 0 0.078125 0.078125 l1.6406 -0.78125 q0.46875 -0.1171875 0.46875 -0.3125 l0.15625 0.078125 q0.546875 -0.44921875 1.875 -0.9375 q0 -0.09765625 0.078125 -0.234375 l0.15625 0.078125 q1.640625 -1.09375 1.796875 -1.09375 q0 -0.1171875 1.09375 -0.625 q0.01953125 -0.15625 0.15625 -0.15625 l0.078125 0 l0 0.15625 l0.078125 0 l0 -0.23438 l0.15625 0 l0 0.15625 l0.15625 -0.078125 l0 0.15625 q-0.1171875 0 -0.3125 0.3125 l0.078125 0.15625 l0 0.078125 q-0.234375 0 -0.390625 0.703125 q0.078125 0 0.078125 0.078125 q-0.29296875 0 -0.859375 0.9375 l-0.078125 0 l0.078125 0.15625 q-0.13671875 0.25390625 -1.484375 1.25 q0 0.078125 0.078125 0.078125 q-0.21484375 0.44921875 -1.640625 1.171875 q-0.33203125 0.3515625 -2.96875 1.71875 l0 -0.078125 q-0.8203125 0.56640625 -2.1875 0.9375 q-1.09375 0.09765625 -1.09375 0.234375 q-1.484375 -0.15625 -2.421875 -0.625 q-1.30859375 -1.03515625 -1.796875 -3.28125 q-0.15625 -0.76171875 -0.15625 -1.171875 q0.1171875 -0.703125 0.234375 -0.703125 l-0.078125 -0.15625 l0 -0.078125 q0.8984375 -2.34375 1.796875 -3.359375 q1.58203125 -2.7734375 2.96875 -4.609375 l2.2656 -3.5156 l0 -0.078125 l-0.078125 0 q-2.28515625 1.1328125 -5.390625 3.984375 q-2.7734375 2.75390625 -5.078125 5.625 q-1.62109375 1.875 -1.875 1.875 l-0.078125 0 l0 -0.078125 q-0.078125 0 -0.078125 0.078125 l-0.39063 -0.078125 l-0.078125 0 l-0.15625 0.078125 l0 -0.15625 l-0.15625 0 l-0.15625 0.078125 q-1.07421875 -0.9765625 -1.171875 -1.484375 l-0.078125 0 q0 -0.078125 0.078125 -0.078125 l-0.078125 -0.78125 q0 -0.87890625 0.78125 -2.96875 q0.29296875 -0.29296875 1.015625 -1.71875 q1.93359375 -3.26171875 2.65625 -4.296875 q0.9375 -1.34765625 0.9375 -1.640625 l0.15625 0 l0.15625 0.078125 q0.01953125 -0.15625 0.15625 -0.15625 q0.29296875 0.09765625 0.703125 0.390625 l0.23438 0 q1.09375 0.6640625 1.09375 1.953125 q0.390625 -0.234375 0.625 -0.234375 l-0.078125 -0.15625 q0.41015625 -0.078125 1.015625 -0.78125 q0.78125 -0.33203125 0.78125 -0.625 l0.15625 0.078125 q1.73828125 -1.34765625 4.6875 -2.65625 q1.1328125 -0.546875 1.953125 -0.546875 z M81.04346875 13.594000000000001 q0.64453125 0 1.640625 0.859375 q0.46875 0.5859375 0.46875 1.09375 l0 0.39063 q0 0.48828125 -1.09375 1.40625 q0 0.09765625 -1.25 1.484375 q-0.99609375 0.8984375 -1.5625 1.71875 l0 0.15625 q0.15625 0 0.15625 -0.078125 l0.54688 0.078125 l0.46875 0 l0.15625 0.078125 l0 -0.078125 l0.15625 0.078125 q0.078125 0 0.078125 -0.078125 q0.46875 0.15625 2.03125 0.15625 q0.078125 0 0.078125 0.078125 q0.078125 0 0.078125 -0.078125 q1.69921875 0.15625 3.28125 0.15625 q0.13671875 0.078125 0.234375 0.078125 q0 -0.078125 0.078125 -0.078125 l0 0.078125 q0.078125 0 0.078125 -0.078125 l1.0156 0.15625 l0 0.078125 l-0.39063 0.078125 l0 0.078125 l0.39063 0 l0 0.15625 q-0.44921875 0 -1.640625 0.625 q-0.29296875 0 -0.46875 0.15625 l0 -0.078125 q-0.234375 0.078125 -0.234375 0.15625 l0 0.23438 q-0.09765625 0 -0.234375 0.078125 q0 -0.078125 -0.078125 -0.078125 q0 0.078125 -0.078125 0.078125 q0 -0.078125 -0.078125 -0.078125 q-0.078125 0.13671875 -0.078125 0.234375 l-1.1719 0 l0.078125 0.15625 q-2.109375 0.078125 -2.109375 0.234375 l-0.15625 -0.078125 l-0.15625 0 q-0.078125 0 -0.078125 0.078125 l-0.15625 -0.078125 l-1.1719 0 q-0.078125 0 -0.078125 0.078125 q-0.078125 0 -0.078125 -0.078125 q-0.78125 0.078125 -1.171875 0.078125 l-1.0938 0 l-0.15625 0.078125 l0 -0.078125 q-0.3125 0.0390625 -1.40625 2.03125 q0 0.2734375 -0.390625 0.78125 l0.078125 0.15625 l0 0.078125 q-0.3515625 0 -0.625 0.9375 q-0.1953125 0.13671875 -1.09375 2.265625 q-0.7421875 1.5625 -1.015625 2.65625 l-0.3125 1.0156 l0.078125 0 q-0.3125 0.29296875 -1.328125 4.921875 q-0.3125 0.625 -0.546875 2.1875 q-0.21484375 0.390625 -0.546875 1.328125 q-0.1171875 0 -0.234375 0.390625 q-0.15625 0 -0.546875 0.3125 l-0.15625 0 l0 -0.15625 l-0.15625 0 l0 0.15625 l-0.078125 0 q0 -0.234375 -0.078125 -0.234375 l-0.39063 0.078125 q-0.546875 -1.25 -0.546875 -1.484375 q0.625 -4.98046875 2.03125 -9.6875 q0.9375 -3.0859375 1.71875 -4.6875 q-0.078125 0 -0.078125 -0.078125 q0.09765625 0 1.25 -2.421875 l0.15625 -0.078125 l-0.078125 -0.15625 l0.078125 -0.15625 l-0.078125 0 l0 0.078125 q-0.078125 0 -0.078125 -0.078125 q-0.91796875 0.15625 -1.875 0.15625 l0 -0.078125 q-0.3515625 0.15625 -1.015625 0.15625 l-0.46875 0 q-0.44921875 -0.46875 -0.625 -0.46875 q-0.13671875 -0.234375 -0.3125 -0.9375 q0 -0.078125 0.078125 -0.078125 l-0.078125 -0.39063 l0.078125 -0.39063 q-0.1171875 0 -0.234375 -0.234375 l0 -0.15625 q0.15625 0 0.15625 -0.078125 l0.54688 0.078125 l0.3125 0 l0.39063 -0.078125 l0 0.078125 l0.70313 -0.15625 l0 0.078125 q1.09375 -0.234375 3.515625 -0.234375 l0.39063 0 q0.52734375 0 1.015625 -1.09375 q0.17578125 0 1.015625 -1.25 q2.01171875 -2.34375 2.1875 -2.34375 q0.390625 -0.5859375 1.875 -1.796875 q0 -0.1953125 0.46875 -0.625 z M113.09803124999999 23.066 l0 0.078125 q0.15625 -0.078125 0.234375 -0.078125 q2.265625 0.99609375 2.265625 1.71875 q0.078125 0 0.234375 0.703125 l-0.078125 0 q0.15625 0.3125 0.15625 0.46875 l-0.078125 0 l0.078125 0.15625 q-0.078125 0.13671875 -0.078125 0.234375 l0.078125 0 q-0.7421875 2.734375 -2.8125 5.15625 q0 -0.078125 -0.078125 -0.078125 q-1.40625 1.71875 -1.953125 1.71875 q0 0.17578125 -1.40625 1.171875 q-1.328125 0.78125 -1.71875 0.78125 q-0.17578125 0 -2.5 1.015625 l0 -0.078125 q-1.11328125 0.390625 -1.953125 0.390625 l-0.078125 0 q-0.078125 0 -0.078125 -0.078125 q-0.234375 0.078125 -0.234375 0.15625 l-0.39063 -0.078125 l-0.70313 0 q-0.078125 0 -0.078125 -0.078125 q-0.078125 0 -0.078125 0.078125 q-0.703125 -0.078125 -1.484375 -0.390625 l0 0.078125 q-0.078125 0.13671875 -0.078125 0.3125 q0.078125 0 0.078125 0.078125 q-0.05859375 0 -1.015625 1.796875 l0 0.078125 l0.078125 0.15625 q-0.25390625 0 -1.09375 1.953125 q-0.13671875 0.46875 -0.625 1.25 q-1.40625 2.734375 -2.8125 5.859375 q-0.859375 1.46484375 -1.171875 3.203125 l-0.54688 0.39063 l0 -0.15625 l-0.15625 0.078125 l-0.15625 -0.078125 q-0.13671875 0.078125 -0.234375 0.078125 q0 -0.1171875 -0.234375 -0.234375 q0 0.078125 -0.078125 0.078125 q0 -0.078125 -0.078125 -0.078125 l0 0.078125 q-0.546875 0 -0.78125 -1.640625 q-0.078125 0 -0.234375 -0.3125 q0 -0.546875 0.78125 -3.59375 q-0.078125 0 -0.078125 -0.078125 q0.234375 -0.1171875 0.625 -1.5625 q2.421875 -6.15234375 3.515625 -8.671875 q2.3046875 -4.98046875 4.84375 -9.0625 l0 -0.15625 l-0.15625 0 l0 -0.078125 q0.15625 0 0.15625 -0.234375 l0.078125 0 q0 0.15625 0.078125 0.15625 q0.390625 0 0.390625 -0.15625 q0.99609375 0.41015625 1.09375 0.625 q0.56640625 0 1.015625 1.875 q-0.078125 0 -0.078125 0.078125 l0.078125 0 l-0.078125 0.15625 l0 0.15625 l0.078125 0.15625 q-0.15625 0.01953125 -0.15625 0.15625 l0 0.15625 q0.0390625 0.15625 0.15625 0.15625 q1.34765625 -1.5625 2.890625 -2.8125 q0 0.078125 0.078125 0.078125 q0 -0.5078125 3.75 -2.5 q1.46484375 -0.78125 2.8125 -0.78125 z M112.39503125 25.566000000000003 l0 -0.078125 l-1.1719 0.46875 q0 -0.078125 -0.078125 -0.078125 q0 0.17578125 -0.9375 0.46875 q-2.03125 1.42578125 -2.5 1.484375 q-1.5234375 1.2109375 -3.671875 3.359375 l0 -0.078125 q0.15625 -0.1953125 0.15625 -0.234375 l-0.078125 0 l-2.3438 3.0469 q-0.15625 0.25390625 -0.15625 0.390625 l0.625 0 l0.15625 -0.078125 l0 0.078125 q4.0625 -0.7421875 7.1875 -3.4375 q0.76171875 -0.5859375 1.875 -2.03125 q1.953125 -2.8125 1.953125 -3.515625 q-0.078125 0 -0.078125 0.078125 q-0.078125 0 -0.078125 -0.078125 z M121.429725 40 q-1.2890625 -1.328125 -1.2890625 -2.67578125 l0 -0.19531 q0 -0.5078125 -0.1953125 -0.5078125 q0.01953125 -0.1171875 0.09765625 -0.1171875 q-0.17578125 -1.50390625 -0.17578125 -2.65625 q0 -0.44921875 0.01953125 -0.859375 q0.1953125 -3.8671875 4.2578125 -12.890625 q2.96875 -6.97265625 4.00390625 -9.2578125 l-0.058594 -0.25391 l0.039063 -0.50781 q0.25390625 0 0.4296875 -0.625 l0.3125 0 l0.15625 0.11719 l0 -0.11719 l0.37109 0.25391 l0.48828 -0.13672 q0 0.234375 0.859375 1.015625 q0.48828125 1.40625 0.48828125 1.9140625 l-0.039063 0.58594 q-0.078125 1.23046875 -1.796875 4.62890625 q-0.4296875 0.5078125 -0.99609375 2.01171875 q-0.05859375 0 -3.046875 6.62109375 q-0.1953125 0.13671875 -1.30859375 3.0078125 q-1.6796875 4.0234375 -1.8359375 6.26953125 l-0.019531 0.11719 q0.37109375 0 1.23046875 -0.87890625 l0.46875 0 l0 0.11719 q0 0.21484375 0.05859375 0.390625 q-0.37109375 0 -0.56640625 1.25 q0.05859375 0.234375 0.05859375 0.37109375 q-0.1171875 0 -0.4296875 0.625 l0 0.039063 q0 0.21484375 0.21484375 0.21484375 q-0.01953125 0.25390625 -0.25390625 0.25390625 l0.058594 0.25391 q-0.15625 0.0390625 -0.17578125 0.234375 l0.058594 0.25391 q-0.64453125 1.1328125 -1.484375 1.1328125 z M133.1211125 26.641 l0 0.078125 l-0.078125 0.15625 l0.078125 0 l0.23438 -0.3125 l0 -0.078125 z M130.5429725 29.844 q0 0.078125 -0.078125 0.234375 l0.078125 0 l0.078125 -0.15625 l0 -0.078125 l-0.078125 0 z M131.6367125 28.436999999999998 l-0.15625 0.23438 l0.078125 0 l0.15625 -0.23438 l-0.078125 0 z M132.8867125 26.953 l-0.39063 0.46875 l0 0.078125 q0.13671875 0 0.46875 -0.546875 l-0.078125 0 z M131.2461125 34.4531 q1.3671875 -0.91796875 2.421875 -2.265625 l2.5781 -2.7344 q2.51953125 -2.71484375 2.890625 -2.734375 q0 -0.17578125 1.5625 -1.484375 q0.078125 -0.4296875 0.078125 -0.703125 l0 -0.23438 l-0.23438 0 l-0.15625 0.078125 l0 -0.078125 q-1.328125 0.3515625 -1.328125 0.78125 q-0.44921875 0 -2.1875 1.5625 q-2.578125 2.4609375 -3.984375 4.375 q-1.640625 2.55859375 -1.640625 3.4375 z M131.8711125 28.047 l0 0.15625 q0.1171875 0 0.3125 -0.3125 l0 -0.078125 z M133.1211125 26.641 l0 -0.078125 q0.546875 -0.625 0.625 -0.625 l0 0.15625 l0.15625 -0.078125 l-0.078125 -0.15625 q0 -0.1171875 0.234375 -0.234375 l0 0.078125 l-0.078125 0.15625 l0.15625 0 q0 -0.13671875 0.859375 -0.9375 l-0.078125 0 q0.078125 -0.15625 0.078125 -0.234375 l0.078125 0 l0 0.15625 l0.078125 0 q0 -0.52734375 0.703125 -0.703125 l0.23438 -0.3125 l-0.078125 0 q0 0.1171875 -0.234375 0.234375 l-0.078125 0 l0.46875 -0.54688 q-0.078125 0 -0.078125 -0.078125 q0.234375 0 0.234375 -0.15625 l0.078125 0 l0.15625 0.078125 l0 -0.23438 l0.078125 0 l0 0.15625 l0.078125 0 l0 -0.23438 l0.078125 0 q0 0.078125 0.078125 0.234375 q0.15625 -0.078125 0.234375 -0.078125 l-0.078125 -0.15625 q0.859375 -0.33203125 0.859375 -0.46875 l0 -0.078125 q1.875 -0.1171875 1.875 -0.234375 l0.15625 0.078125 l0.46875 0 l0.15625 -0.078125 l0 0.078125 l0.15625 -0.078125 l0.46875 0 q0.95703125 0 2.1875 1.5625 l0.078125 0 l0.39063 -0.078125 l0 0.078125 l-0.078125 0.15625 l0.15625 0 q0.078125 0 0.078125 -0.078125 q0.703125 0.1171875 1.40625 1.171875 l0 0.23438 q-0.29296875 1.15234375 -2.890625 5.9375 q-2.265625 4.8046875 -2.265625 7.8125 l0 0.46875 q0 0.546875 0.234375 1.171875 q-0.078125 0.15625 -0.078125 0.234375 q0 0.13671875 0.15625 0.46875 q-0.1171875 0 -0.625 0.46875 l-0.078125 0 q-0.078125 0 -0.078125 -0.078125 l-0.15625 0.078125 q-0.25390625 -0.15625 -0.390625 -0.15625 q0 0.078125 -0.078125 0.078125 q-1.328125 -1.2109375 -1.640625 -2.734375 l0 -0.15625 l0.078125 -0.15625 l-0.078125 -0.46875 l0 -0.15625 l-0.15625 0 l0.078125 -0.15625 l0 -0.39063 q0 -1.8359375 0.46875 -2.96875 l-0.078125 -0.15625 q0.625 -2.109375 0.9375 -2.578125 l-0.078125 -0.15625 q0 -0.234375 0.390625 -1.015625 l-0.078125 0 q-1.15234375 1.0546875 -4.6875 5.078125 q-1.93359375 1.9921875 -2.734375 2.109375 q-1.5625 0 -2.34375 -1.5625 q-0.390625 -0.234375 -0.625 -1.875 l0 -0.078125 q0.29296875 -1.25 0.390625 -1.25 l0 -0.078125 l-0.078125 0 q0.72265625 -2.32421875 1.953125 -3.671875 l0 0.078125 l-0.15625 0.23438 l0.078125 0 l0.46875 -0.625 l-0.15625 0.078125 l-0.078125 0 l0 -0.078125 q0.46875 -0.7421875 0.859375 -1.015625 l0 -0.078125 q0.2734375 -0.44921875 1.25 -1.328125 z M128.7461125 32.2656 l0.23438 0 l0 0.15625 l-0.15625 -0.078125 l0 0.15625 l-0.078125 0 l0 -0.23438 z M129.4492225 31.1719 l0 0.078125 q-0.1171875 0.3125 -0.234375 0.3125 l0 -0.078125 q0.1171875 -0.3125 0.234375 -0.3125 z M129.6054725 30.8594 l0 0.23438 l-0.15625 0 l0 -0.078125 q0.01953125 -0.15625 0.15625 -0.15625 z M130.0742185 30.0781 l0 0.078125 q0 0.15625 -0.15625 0.15625 l0 -0.078125 q0.01953125 -0.15625 0.15625 -0.15625 z M130.4648425 29.531 l0 0.078125 q0 0.1171875 -0.234375 0.234375 l0 -0.078125 q0 -0.1171875 0.234375 -0.234375 z M131.0117225 29.141 l0 0.23438 l-0.15625 0 l0 -0.078125 q0.01953125 -0.15625 0.15625 -0.15625 z M130.8554725 28.984 l0 0.078125 q0 0.1171875 -0.234375 0.234375 l0 -0.078125 q0 -0.1171875 0.234375 -0.234375 z M131.2461125 28.436999999999998 l0 0.078125 q-0.09765625 0.3125 -0.390625 0.46875 l0 -0.078125 q0.29296875 -0.46875 0.390625 -0.46875 z M131.5586125 28.047 l0 0.078125 q-0.15625 0.1953125 -0.15625 0.3125 l-0.15625 0 q0.15625 -0.3515625 0.3125 -0.390625 z M133.1992125 26.25 l0 0.078125 q-1.171875 1.328125 -1.25 1.328125 l0 -0.078125 q1.03515625 -1.328125 1.25 -1.328125 z M134.4492125 25.234 l0.078125 0 q0 0.1171875 -0.234375 0.234375 l0 -0.078125 q0.01953125 -0.15625 0.15625 -0.15625 z M134.7617125 24.609 l0.078125 0 l0 0.15625 q-0.21484375 0 -1.09375 1.015625 l-0.3125 0.23438 l0 -0.078125 q1.2109375 -1.328125 1.328125 -1.328125 z M135.4648125 23.828 l0.078125 0 l0 0.23438 l-0.3125 0.23438 l0 -0.078125 q0.234375 -0.25390625 0.234375 -0.390625 z M161.10178125 22.129 l0.3125 0 q0.15625 0.17578125 1.25 0.625 q0 0.13671875 0.625 0.625 q0.625 0.5078125 0.625 0.859375 l0 0.39063 q0 1.1328125 -3.046875 5.390625 q-2.44140625 3.30078125 -5.546875 8.515625 q-0.703125 1.50390625 -0.703125 2.5 q0.01953125 0.1953125 0.390625 0.3125 q0.09765625 0 1.09375 -0.3125 q0 0.078125 0.078125 0.078125 l0.078125 -0.15625 l0.15625 0.078125 l2.2656 -1.0156 l0 -0.078125 l0.078125 0 q0.078125 0 0.078125 0.078125 l1.6406 -0.78125 q0.46875 -0.1171875 0.46875 -0.3125 l0.15625 0.078125 q0.546875 -0.44921875 1.875 -0.9375 q0 -0.09765625 0.078125 -0.234375 l0.15625 0.078125 q1.640625 -1.09375 1.796875 -1.09375 q0 -0.1171875 1.09375 -0.625 q0.01953125 -0.15625 0.15625 -0.15625 l0.078125 0 l0 0.15625 l0.078125 0 l0 -0.23438 l0.15625 0 l0 0.15625 l0.15625 -0.078125 l0 0.15625 q-0.1171875 0 -0.3125 0.3125 l0.078125 0.15625 l0 0.078125 q-0.234375 0 -0.390625 0.703125 q0.078125 0 0.078125 0.078125 q-0.29296875 0 -0.859375 0.9375 l-0.078125 0 l0.078125 0.15625 q-0.13671875 0.25390625 -1.484375 1.25 q0 0.078125 0.078125 0.078125 q-0.21484375 0.44921875 -1.640625 1.171875 q-0.33203125 0.3515625 -2.96875 1.71875 l0 -0.078125 q-0.8203125 0.56640625 -2.1875 0.9375 q-1.09375 0.09765625 -1.09375 0.234375 q-1.484375 -0.15625 -2.421875 -0.625 q-1.30859375 -1.03515625 -1.796875 -3.28125 q-0.15625 -0.76171875 -0.15625 -1.171875 q0.1171875 -0.703125 0.234375 -0.703125 l-0.078125 -0.15625 l0 -0.078125 q0.8984375 -2.34375 1.796875 -3.359375 q1.58203125 -2.7734375 2.96875 -4.609375 l2.2656 -3.5156 l0 -0.078125 l-0.078125 0 q-2.28515625 1.1328125 -5.390625 3.984375 q-2.7734375 2.75390625 -5.078125 5.625 q-1.62109375 1.875 -1.875 1.875 l-0.078125 0 l0 -0.078125 q-0.078125 0 -0.078125 0.078125 l-0.39063 -0.078125 l-0.078125 0 l-0.15625 0.078125 l0 -0.15625 l-0.15625 0 l-0.15625 0.078125 q-1.07421875 -0.9765625 -1.171875 -1.484375 l-0.078125 0 q0 -0.078125 0.078125 -0.078125 l-0.078125 -0.78125 q0 -0.87890625 0.78125 -2.96875 q0.29296875 -0.29296875 1.015625 -1.71875 q1.93359375 -3.26171875 2.65625 -4.296875 q0.9375 -1.34765625 0.9375 -1.640625 l0.15625 0 l0.15625 0.078125 q0.01953125 -0.15625 0.15625 -0.15625 q0.29296875 0.09765625 0.703125 0.390625 l0.23438 0 q1.09375 0.6640625 1.09375 1.953125 q0.390625 -0.234375 0.625 -0.234375 l-0.078125 -0.15625 q0.41015625 -0.078125 1.015625 -0.78125 q0.78125 -0.33203125 0.78125 -0.625 l0.15625 0.078125 q1.73828125 -1.34765625 4.6875 -2.65625 q1.1328125 -0.546875 1.953125 -0.546875 z M182.69553125 22.129 l0.3125 0 q0.15625 0.17578125 1.25 0.625 q0 0.13671875 0.625 0.625 q0.625 0.5078125 0.625 0.859375 l0 0.39063 q0 1.1328125 -3.046875 5.390625 q-2.44140625 3.30078125 -5.546875 8.515625 q-0.703125 1.50390625 -0.703125 2.5 q0.01953125 0.1953125 0.390625 0.3125 q0.09765625 0 1.09375 -0.3125 q0 0.078125 0.078125 0.078125 l0.078125 -0.15625 l0.15625 0.078125 l2.2656 -1.0156 l0 -0.078125 l0.078125 0 q0.078125 0 0.078125 0.078125 l1.6406 -0.78125 q0.46875 -0.1171875 0.46875 -0.3125 l0.15625 0.078125 q0.546875 -0.44921875 1.875 -0.9375 q0 -0.09765625 0.078125 -0.234375 l0.15625 0.078125 q1.640625 -1.09375 1.796875 -1.09375 q0 -0.1171875 1.09375 -0.625 q0.01953125 -0.15625 0.15625 -0.15625 l0.078125 0 l0 0.15625 l0.078125 0 l0 -0.23438 l0.15625 0 l0 0.15625 l0.15625 -0.078125 l0 0.15625 q-0.1171875 0 -0.3125 0.3125 l0.078125 0.15625 l0 0.078125 q-0.234375 0 -0.390625 0.703125 q0.078125 0 0.078125 0.078125 q-0.29296875 0 -0.859375 0.9375 l-0.078125 0 l0.078125 0.15625 q-0.13671875 0.25390625 -1.484375 1.25 q0 0.078125 0.078125 0.078125 q-0.21484375 0.44921875 -1.640625 1.171875 q-0.33203125 0.3515625 -2.96875 1.71875 l0 -0.078125 q-0.8203125 0.56640625 -2.1875 0.9375 q-1.09375 0.09765625 -1.09375 0.234375 q-1.484375 -0.15625 -2.421875 -0.625 q-1.30859375 -1.03515625 -1.796875 -3.28125 q-0.15625 -0.76171875 -0.15625 -1.171875 q0.1171875 -0.703125 0.234375 -0.703125 l-0.078125 -0.15625 l0 -0.078125 q0.8984375 -2.34375 1.796875 -3.359375 q1.58203125 -2.7734375 2.96875 -4.609375 l2.2656 -3.5156 l0 -0.078125 l-0.078125 0 q-2.28515625 1.1328125 -5.390625 3.984375 q-2.7734375 2.75390625 -5.078125 5.625 q-1.62109375 1.875 -1.875 1.875 l-0.078125 0 l0 -0.078125 q-0.078125 0 -0.078125 0.078125 l-0.39063 -0.078125 l-0.078125 0 l-0.15625 0.078125 l0 -0.15625 l-0.15625 0 l-0.15625 0.078125 q-1.07421875 -0.9765625 -1.171875 -1.484375 l-0.078125 0 q0 -0.078125 0.078125 -0.078125 l-0.078125 -0.78125 q0 -0.87890625 0.78125 -2.96875 q0.29296875 -0.29296875 1.015625 -1.71875 q1.93359375 -3.26171875 2.65625 -4.296875 q0.9375 -1.34765625 0.9375 -1.640625 l0.15625 0 l0.15625 0.078125 q0.01953125 -0.15625 0.15625 -0.15625 q0.29296875 0.09765625 0.703125 0.390625 l0.23438 0 q1.09375 0.6640625 1.09375 1.953125 q0.390625 -0.234375 0.625 -0.234375 l-0.078125 -0.15625 q0.41015625 -0.078125 1.015625 -0.78125 q0.78125 -0.33203125 0.78125 -0.625 l0.15625 0.078125 q1.73828125 -1.34765625 4.6875 -2.65625 q1.1328125 -0.546875 1.953125 -0.546875 z M200.77328125 18.75 q0.33203125 0 0.625 0.15625 q0 -0.078125 0.078125 -0.078125 q0 0.13671875 0.390625 0.234375 l0 -0.078125 l1.1719 0.3125 q0.2734375 0.3125 0.546875 0.3125 q0.3125 0.87890625 0.3125 1.09375 l0 0.078125 q0 0.99609375 -1.5625 3.90625 l-0.15625 -0.078125 q-1.42578125 2.578125 -2.734375 4.296875 q-2.32421875 2.578125 -3.28125 2.578125 q-0.078125 0 -0.9375 -0.234375 l-0.23438 0 q0 -0.1953125 -0.703125 -0.625 l-0.46875 -0.70313 l0 -0.15625 l0.3125 0.078125 q1.23046875 0 2.34375 -1.40625 q0.859375 -0.5859375 1.953125 -1.953125 l0.078125 0 l-0.078125 -0.15625 q1.1328125 -1.40625 2.1875 -3.671875 l0.15625 0 l-0.078125 0.15625 l0.078125 0 l0.23438 -0.39063 l-0.078125 0 q0 0.15625 -0.15625 0.15625 l0 -0.15625 q0.703125 -1.26953125 0.703125 -1.484375 q-1.15234375 0.1953125 -3.28125 2.421875 q-1.40625 1.2109375 -1.40625 1.71875 q-2.8515625 3.41796875 -4.53125 7.5 q-0.546875 1.6796875 -0.546875 2.890625 q0.234375 1.875 1.328125 1.875 q0 0.078125 0.078125 0.078125 l0.625 0 l0.15625 -0.078125 l0 0.078125 q1.2109375 0 4.21875 -2.96875 q0.9765625 -0.9375 1.40625 -0.9375 l0.078125 0 q0 0.15625 0.390625 0.390625 l0.078125 0.15625 q-0.15625 0.01953125 -0.15625 0.15625 q0.01953125 0.15625 0.15625 0.15625 q0 -0.078125 0.078125 -0.078125 l0.078125 0.54688 l0 0.15625 l-0.15625 0.23438 l0.078125 0 q-0.078125 0.09765625 -0.078125 0.46875 l0.078125 0 q-0.15625 0.3125 -0.234375 0.3125 l0.078125 0.15625 q-0.99609375 1.85546875 -1.40625 2.265625 q-1.73828125 1.484375 -2.8125 1.484375 q0 0.078125 -0.546875 0.078125 l-0.78125 0 q-0.078125 0 -0.078125 -0.078125 q-0.078125 0 -0.078125 0.078125 q-1.328125 -0.17578125 -3.046875 -1.328125 q-0.9375 -0.76171875 -1.71875 -1.875 q-0.859375 -1.85546875 -0.859375 -2.5 l0 -0.9375 q0.13671875 -1.89453125 1.5625 -4.296875 q0.5859375 -1.34765625 3.203125 -4.765625 q2.79296875 -3.125 4.140625 -3.984375 q0.9375 -0.60546875 0.9375 -0.78125 l0.15625 0.078125 q0 -0.3125 1.328125 -0.859375 l0.78125 0 z M208.96874375 23.125 q0.44921875 0.234375 0.625 0.234375 l0.23438 0 q0 0.17578125 0.546875 0.390625 q0.6640625 0.72265625 0.78125 1.5625 l0 0.625 q-0.234375 0.76171875 -0.234375 0.859375 l0.078125 0 q4.140625 -3.203125 7.734375 -3.203125 q1.97265625 0 3.515625 1.484375 q0 0.17578125 0.078125 0.3125 q-0.2734375 0.078125 -0.3125 0.078125 l0.078125 0.15625 l-0.078125 0 l0.078125 0.15625 q0 0.15625 -0.625 0.234375 q-0.390625 -0.078125 -0.390625 -0.15625 l-0.15625 0.078125 q-0.7421875 -0.15625 -1.171875 -0.15625 q-0.078125 0 -0.078125 0.078125 q-0.078125 0 -0.078125 -0.078125 q-2.3828125 0 -6.328125 2.8125 q-3.1640625 2.890625 -3.671875 4.140625 q-0.3125 0.078125 -1.25 1.953125 q-0.390625 1.7578125 -0.78125 2.34375 q-0.68359375 2.109375 -1.09375 2.109375 q0 0.5859375 -1.40625 0.859375 q0 -0.17578125 -0.625 -0.390625 l0 -0.078125 q0.078125 0 0.078125 -0.078125 q-0.33203125 0 -0.703125 -1.953125 q-0.13671875 0 -0.15625 -0.390625 l0 -0.15625 l0.15625 0.078125 q2.0703125 -3.41796875 2.1875 -4.53125 q0.078125 0 0.234375 -0.625 l-0.078125 0 q0.234375 -0.390625 0.234375 -0.625 l-0.078125 -0.15625 l0.15625 -0.078125 q0 0.078125 0.078125 0.078125 q0 -0.5078125 1.09375 -3.984375 q0.390625 -1.25 1.015625 -2.890625 q0.1953125 -1.015625 0.3125 -1.09375 z"></path></g><g id="SvgjsG3651" featurekey="symbolFeature-0" transform="matrix(0.07282361427065416,0,0,0.07282361427065416,5,17)" fill="url(#SvgjsLinearGradient3657)"><defs xmlns="http://www.w3.org/2000/svg"></defs></g></svg>